<svg xmlns="http://www.w3.org/2000/svg" viewBox="0 18.451 868 113.5"><path d="M0 66v66h868V66Zh868V39c-28-5-56-24-81-20-7.91.734-20.348 2.834-39.5 5.087-23.073 2.715-33.139 4.227-36.852 5.537-2.261.798-7.495 2.089-11.63 2.87l-10.623 1.196-4.123-1.218c-2.268-.669-5.672-2.174-7.565-3.344-2.657-1.642-6.154-2.352-15.325-3.112-22.992-1.905-32.116-1.245-40.882 2.957-5.826 2.792-14.414 4.031-21.172 3.054-3.755-.543-10.653-1.019-15.328-1.059-10.092-.084-17.36-.943-33.5-3.958-6.6-1.234-14.371-2.183-17.268-2.11-3.006.075-6.528-.519-8.201-1.384-1.612-.834-4.512-1.516-6.443-1.516-5.697 0-20.741 3.9-25.26 6.548-2.301 1.349-5.09 2.452-6.197 2.452-1.107 0-2.291.45-2.631 1-1.036 1.677-5.497 1.13-13.26-1.625-6.076-2.155-7.838-2.423-9.866-1.5-1.357.619-3.684 1.12-5.171 1.115-4.156-.016-20.252-3.56-24.439-5.38-3.499-1.522-4.173-1.504-10.639.288-3.797 1.052-7.919 2.456-9.159 3.12-2.877 1.54-8.243.817-14.251-1.92C392.555 23.748 384.69 22 379.27 22c-2.597 0-3.585.49-3.972 1.967-.601 2.3-3.065 3.267-7.571 2.969-1.775-.117-3.902.067-4.727.409C358.236 29.32 352.442 31 350.396 31c-8.515.587-15.918 1.503-16.45 2.035C306.036 24.564 301.935 25 297.455 25c-6.644 0-8.452.34-9.813 1.843-1.471 1.625-5.829 3.994-16.142 8.774-1.65.765-7.408 2.068-12.795 2.896-5.387.828-13.037 2.453-17 3.611-16.722 4.888-34.089 7.632-36.363 5.745-.874-.726-1.778-.779-2.592-.152-.687.529-2.825 1.013-4.75 1.075-1.925.062-10.475.826-19 1.697-8.525.872-21.035 1.994-27.8 2.495-15.847 1.172-32.306 3.869-34.128 5.592-4.622 2.611-13.361 2.076-17.992 1.607-4.631-.469-10.256-.496-12.5-.061-7.287 1.413-30.782.978-33.58-.622-1.375-.786-3.82-1.445-5.434-1.465-1.614-.019-5.664-.737-9-1.595a8668.96 8668.96 0 0 1-9.614-2.479c-1.951-.506-5.68-2.333-8.288-4.06-2.607-1.727-7.986-4.169-11.952-5.426L1.5 42.189Zm365.75-44.338c.688.278 1.813.278 2.5 0 .688-.277.125-.504-1.25-.504s-1.937.227-1.25.504ZM192.473 45.956c.325.526 1.252.703 2.059.393 2.067-.793 1.824-1.349-.591-1.349-1.132 0-1.793.43-1.468.956Zm-10.14.711a.948.948 0 0 0 1.334 0c.366-.367.066-.667-.667-.667-.733 0-1.033.3-.667.667Zm-73 13a.948.948 0 0 0 1.334 0c.366-.367.066-.667-.667-.667-.733 0-1.033.3-.667.667Z"/></svg>