<svg xmlns="http://www.w3.org/2000/svg" viewBox="0 15 869 117"><path d="M0 66v66-66Zl869 2V15c-29.406 3.145-29.909 3.082-45.5 3.169-10.445.059-17.042-.332-19-1.126-4.441-1.799-8.788-1.526-21 1.319-11.811 2.752-24.742 4.721-47 7.159-7.7.843-16.925 2.21-20.5 3.038-3.575.828-10.1 2.334-14.5 3.345-11.517 2.649-23.48 6.015-25.816 7.265-1.108.593-5.653 1.237-10.1 1.431-21.547.941-25.922 1.382-37.084 3.742-12.547 2.652-21.963 3.923-41.985 5.665-6.591.573-13.761 1.521-15.933 2.106-2.172.584-7.579 1.676-12.016 2.426-4.436.75-9.529 1.661-11.317 2.026-2.137.435-4.415.109-6.651-.951-3.882-1.843-23.037-2.331-24.098-.614-.345.558-5.344 1.032-11.309 1.073-5.88.04-12.941.432-15.691.87s-8.318 1.349-12.374 2.023c-6.296 1.047-7.903 1.003-11-.302-2.4-1.012-8.696-1.741-18.626-2.158-8.25-.347-16.8-1.022-19-1.5-9.314-2.025-24.784-2.274-33.967-.547-5.673 1.067-11 1.462-14.5 1.075-3.122-.345-10.519.059-16.974.928-9.435 1.269-13.464 1.342-22.985.412-6.433-.628-14.871-.811-19.059-.412-4.133.393-14.94 1.067-24.015 1.498-9.075.43-21.225 1.531-27 2.446-8.107 1.284-11.981 1.442-17 .692-8.137-1.216-47.116-1.674-52.5-.616-2.2.432-5.281 1.434-6.846 2.227-3.668 1.858-5.53 1.892-47.154.865-25.562-.63-36.079-1.241-39-2.265-3.225-1.131-8.48-1.268-27.119-.708-19.577.588-23.867.454-28-.87C49.696 58.87 43.9 57.4 39.5 56.463c-11.507-2.449-13.947-3.276-18.201-6.171C19.21 48.869 13.9 46.494 9.5 45.013l-8-2.693Zv65l194 1c-.588-2.666.217-4.708-4.186-5.426-1.823-.298-5.984-.999-9.248-1.558-3.263-.559-11.813-1.079-19-1.155l-13.066-.14 8.728-.776c4.8-.426 10.2-1.252 12-1.836 1.8-.583 14.297-1.514 27.772-2.069 13.475-.555 27.65-1.247 31.5-1.537 42.018-3.164 162.388-4.52 165.213-1.861 1.803 1.697 31.358 2.74 56.287 1.988 11.825-.357 45.8-1.315 75.5-2.128 29.7-.813 64.35-1.921 77-2.462 85.317-3.649 128.46-4.668 206.75-4.882L869 111V55Zm146.729 58.604c-.332.332-1.195.368-1.916.079-.798-.319-.561-.556.604-.604 1.054-.043 1.644.193 1.312.525Z"/></svg>